<svg xmlns="http://www.w3.org/2000/svg" width="128.029" height="181.182" viewBox="0 0 128.029 181.182">
  <g id="Group_5" data-name="Group 5" transform="translate(-156 -361)">
    <g id="Group_3" data-name="Group 3" transform="translate(156 361)">
      <path id="Path_3" data-name="Path 3" d="M50.672,69.49V48.109a.977.977,0,0,0-1.955,0V69.49A15.8,15.8,0,0,0,64.5,85.27h66.4c.087-.65.175-1.3.252-1.955H64.5A13.84,13.84,0,0,1,50.672,69.49Z" transform="translate(-3.968 24.264)" fill="#5e5353"/>
      <path id="Path_4" data-name="Path 4" d="M58.269,85.106V39.376A6.124,6.124,0,0,1,65,33.281a6.34,6.34,0,0,1,5.518,6.4V52.563a.977.977,0,1,0,1.955,0V39.682a8.31,8.31,0,0,0-7.29-8.347A8.178,8.178,0,0,0,58.958,33.4a8.087,8.087,0,0,0-2.644,5.977v45.73A13.841,13.841,0,0,1,42.489,98.931H26.618c.077.655.165,1.305.252,1.955H42.489A15.8,15.8,0,0,0,58.269,85.106Z" transform="translate(-25.766 8.649)" fill="#5e5353"/>
      <path id="Path_5" data-name="Path 5" d="M76.352,62.92a.978.978,0,0,0,.977.977h27.022c.038-.542.068-1.091.1-1.639l.016-.316H77.329A.979.979,0,0,0,76.352,62.92Z" transform="translate(23.29 38.873)" fill="#5e5353"/>
      <path id="Path_6" data-name="Path 6" d="M51.789,63.613V54.068a.976.976,0,1,0-1.953,0v9.544a7.071,7.071,0,0,1-7.063,7.062H26.326l.016.318c.032.548.062,1.094.1,1.637H42.773A9.026,9.026,0,0,0,51.789,63.613Z" transform="translate(-26.054 30.141)" fill="#5e5353"/>
      <path id="Path_7" data-name="Path 7" d="M74.908,97.478h28.931a.977.977,0,1,0,0-1.955H74.908a7.071,7.071,0,0,1-7.063-7.062V43.038a15.127,15.127,0,0,0-13.41-15.08c-.457-.04-.912-.06-1.361-.06A14.891,14.891,0,0,0,38.162,42.732V69.449a.977.977,0,0,0,1.955,0V42.732a12.908,12.908,0,0,1,12.9-12.886q.611,0,1.234.06A13.152,13.152,0,0,1,65.89,43.038V88.462A9.028,9.028,0,0,0,74.908,97.478Z" transform="translate(-14.379 5.292)" fill="#5e5353"/>
      <path id="Path_8" data-name="Path 8" d="M74.522,91.032a.977.977,0,0,0,.977-.977V46.4a21.943,21.943,0,0,0-19.532-21.81c-.693-.066-1.4-.1-2.088-.1a21.294,21.294,0,0,0-16.387,7.55A.982.982,0,0,0,37.6,33.42a1.018,1.018,0,0,0,1.381-.107,19.542,19.542,0,0,1,14.824-6.875c.655,0,1.321.032,1.978.1A19.972,19.972,0,0,1,73.545,46.4V90.055A.978.978,0,0,0,74.522,91.032Z" transform="translate(-15.269 1.932)" fill="#5e5353"/>
      <path id="Path_9" data-name="Path 9" d="M59.668,59.513a.978.978,0,0,0,.979.977h60.487q.027-.971.038-1.953H60.647A.978.978,0,0,0,59.668,59.513Z" transform="translate(6.833 35.514)" fill="#5e5353"/>
      <path id="Path_10" data-name="Path 10" d="M45.151,84.306V38.576a19.638,19.638,0,0,1,.707-5.224.978.978,0,1,0-1.885-.522,21.633,21.633,0,0,0-.777,5.747L43.272,84.6H26.2q.012.98.038,1.953H42.9A2.255,2.255,0,0,0,45.151,84.306Z" transform="translate(-26.177 9.448)" fill="#5e5353"/>
      <path id="Path_11" data-name="Path 11" d="M38.4,89.694V49.452A26.443,26.443,0,0,1,64.814,23.04c.8,0,1.657.042,2.535.121A26.556,26.556,0,0,1,87.226,35.73a1,1,0,0,0,1.347.32A.985.985,0,0,0,88.89,34.7,28.525,28.525,0,0,0,67.531,21.214c-.912-.085-1.825-.129-2.717-.129A28.4,28.4,0,0,0,36.445,49.452V88.717H26.215l-.01.344c-.008.32-.016.64-.016.965l0,.646H37.424A.979.979,0,0,0,38.4,89.694Z" transform="translate(-26.189 -1.428)" fill="#5e5353"/>
      <path id="Path_12" data-name="Path 12" d="M122.211,78.168l-.008-.338H61.192V38.872a28.493,28.493,0,0,0-.638-5.983.971.971,0,0,0-.963-.767,1.034,1.034,0,0,0-.2.02.982.982,0,0,0-.743,1.162,26.54,26.54,0,0,1,.594,5.568V78.807a.978.978,0,0,0,.977.977h62.008l0-.646C122.227,78.811,122.219,78.49,122.211,78.168Z" transform="translate(5.802 9.458)" fill="#5e5353"/>
      <path id="Path_13" data-name="Path 13" d="M55.215,19.785c16.822,1.611,30,16.25,30,33.331V83.247a.977.977,0,0,0,1.955,0V53.116c0-18.078-13.954-33.573-31.768-35.278-1.132-.1-2.264-.157-3.363-.157A35.093,35.093,0,0,0,42.617,19c-1.178,1.037-2.34,2.135-3.474,3.281a32.616,32.616,0,0,1,12.893-2.644C53.057,19.636,54.126,19.685,55.215,19.785Z" transform="translate(-13.412 -4.786)" fill="#5e5353"/>
      <path id="Path_14" data-name="Path 14" d="M31.566,66.865V37.372c-.737,2.286-1.394,4.6-1.966,6.9l.012,21.614H26.377l0,.048c-.04.632-.079,1.265-.111,1.9h4.326A.978.978,0,0,0,31.566,66.865Z" transform="translate(-26.117 14.637)" fill="#5e5353"/>
      <path id="Path_15" data-name="Path 15" d="M67.16,52.7a.977.977,0,0,0,.977.977h45.523c-.032-.638-.072-1.271-.111-1.9l0-.048H68.137A.976.976,0,0,0,67.16,52.7Z" transform="translate(14.223 28.798)" fill="#5e5353"/>
      <path id="Path_16" data-name="Path 16" d="M50.123,16.368C70.374,18.307,86.237,35.9,86.237,56.431V82.842a.979.979,0,0,0,.977.977h47.851l-.036-.393c-.048-.522-.1-1.045-.149-1.561H88.193V56.431c0-21.524-16.644-39.977-37.89-42.012-.53-.048-1.035-.064-1.541-.079l-.548-.02c-1.11.6-2.2,1.243-3.254,1.907.441-.024.888-.042,1.339-.042C47.512,16.185,48.8,16.247,50.123,16.368Z" transform="translate(-7.674 -8.101)" fill="#5e5353"/>
      <path id="Path_17" data-name="Path 17" d="M73.8,45.9a.978.978,0,0,0,.977.977h31c-.1-.657-.215-1.305-.328-1.955H74.776A.979.979,0,0,0,73.8,45.9Z" transform="translate(20.772 22.08)" fill="#5e5353"/>
      <path id="Path_18" data-name="Path 18" d="M87.194,58.81V75.074a.978.978,0,1,0,1.957,0V58.81A49.37,49.37,0,0,0,54.4,11.908c-1.148.3-2.32.65-3.552,1.073A47.106,47.106,0,0,1,87.194,58.81Z" transform="translate(-1.866 -10.48)" fill="#5e5353"/>
      <path id="Path_19" data-name="Path 19" d="M87.547,59.519V72.4a.977.977,0,0,0,.977.977h32.229c-.139-.656-.28-1.309-.429-1.953H89.5V59.519A56.155,56.155,0,0,0,61.47,11.237l-.1,0c-.546-.022-1.092-.044-1.637-.044h-.622c-.552,0-1.134.014-1.76.042A54.119,54.119,0,0,1,87.547,59.519Z" transform="translate(4.545 -11.189)" fill="#5e5353"/>
      <path id="Path_20" data-name="Path 20" d="M86.848,58.614v6.12a.978.978,0,0,0,.977.977h23.787c-.189-.657-.385-1.307-.584-1.955H88.8V58.614a63.023,63.023,0,0,0-19.162-44.87c-1.577-.632-3.16-1.18-4.73-1.637A61.278,61.278,0,0,1,86.848,58.614Z" transform="translate(12.005 -10.284)" fill="#5e5353"/>
      <path id="Path_21" data-name="Path 21" d="M80.954,42.732H95.8c-.232-.657-.469-1.313-.715-1.955H81.917l-.01-.365A68.475,68.475,0,0,0,80.67,29.34a.982.982,0,0,0-.957-.791,1.015,1.015,0,0,0-.189.02.981.981,0,0,0-.773,1.148,65.954,65.954,0,0,1,1.224,12.045A.983.983,0,0,0,80.954,42.732Z" transform="translate(25.638 5.934)" fill="#5e5353"/>
      <path id="Path_22" data-name="Path 22" d="M82.811,32.921a.978.978,0,0,0,.594-1.249,70.361,70.361,0,0,0-5.6-11.914c-1.486-1.265-3.023-2.463-4.59-3.571a67.987,67.987,0,0,1,8.345,16.143A1,1,0,0,0,82.811,32.921Z" transform="translate(20.2 -6.26)" fill="#5e5353"/>
      <path id="Path_23" data-name="Path 23" d="M85.426,41.045h5.745c-.292-.657-.59-1.311-.9-1.955H86.308l-.04-.33A73.9,73.9,0,0,0,84.26,28.392c-1.118-1.692-2.316-3.363-3.583-4.99a72.071,72.071,0,0,1,3.78,16.765A.97.97,0,0,0,85.426,41.045Z" transform="translate(27.556 0.857)" fill="#5e5353"/>
      <path id="Path_24" data-name="Path 24" d="M105.943,72.5H27.881c.149.6.306,1.2.465,1.788l.044.165h77.553a13.839,13.839,0,0,1,13.823,13.823v9.209a.977.977,0,0,0,1.955,0V88.274A15.793,15.793,0,0,0,105.943,72.5Z" transform="translate(-24.52 49.284)" fill="#5e5353"/>
      <path id="Path_25" data-name="Path 25" d="M75.115,90.372a.977.977,0,0,0-.975.977v11.658c.667-.509,1.321-1.029,1.953-1.549V91.349A.978.978,0,0,0,75.115,90.372Z" transform="translate(21.108 66.914)" fill="#5e5353"/>
      <path id="Path_26" data-name="Path 26" d="M81.289,88.268v17.75c.707-.957,1.353-1.869,1.955-2.763V88.268A13.812,13.812,0,0,1,95.974,74.546l.014-.05c.175-.661.352-1.323.518-1.992A15.814,15.814,0,0,0,81.289,88.268Z" transform="translate(28.159 49.29)" fill="#5e5353"/>
      <path id="Path_27" data-name="Path 27" d="M84.694,84.723v6.909c.652-1.245,1.3-2.56,1.955-3.979v-2.93a7.03,7.03,0,0,1,3.665-6.152q.426-1.222.818-2.473A9.071,9.071,0,0,0,84.694,84.723Z" transform="translate(31.518 52.835)" fill="#5e5353"/>
      <path id="Path_28" data-name="Path 28" d="M87.982,76.88A.978.978,0,0,0,87,75.9H28.834c.2.656.409,1.309.624,1.953H87A.977.977,0,0,0,87.982,76.88Z" transform="translate(-23.58 52.642)" fill="#5e5353"/>
      <path id="Path_29" data-name="Path 29" d="M71.732,75.9h-8.19a.977.977,0,0,0,0,1.955h8.19a7.069,7.069,0,0,1,7.062,7.062v36.839c.654-.373,1.309-.765,1.955-1.168V84.919A9.026,9.026,0,0,0,71.732,75.9Z" transform="translate(9.691 52.642)" fill="#5e5353"/>
      <path id="Path_30" data-name="Path 30" d="M92.289,81.561a2.255,2.255,0,0,0-2.253-2.253H44.984a.976.976,0,1,0,0,1.953l45.349-.076v37.836a20.525,20.525,0,0,0,.179,2.6c.675-.272,1.291-.534,1.865-.793-.06-.64-.087-1.236-.087-1.812Z" transform="translate(-8.614 56.001)" fill="#5e5353"/>
      <path id="Path_31" data-name="Path 31" d="M49.94,80.283a.978.978,0,0,0-.979-.975H30.031q.387.986.795,1.953H48.961A.978.978,0,0,0,49.94,80.283Z" transform="translate(-22.399 56.001)" fill="#5e5353"/>
      <path id="Path_32" data-name="Path 32" d="M97.838,83.689a.978.978,0,0,0-.977-.977H31.525c.326.659.659,1.309,1,1.955H95.883v31a28.329,28.329,0,0,0,.409,4.751c.612-.155,1.239-.33,1.9-.526a26.311,26.311,0,0,1-.356-4.225Z" transform="translate(-20.926 59.358)" fill="#5e5353"/>
      <path id="Path_33" data-name="Path 33" d="M62.475,90.157a.977.977,0,0,0-1.955,0v19.127a34.916,34.916,0,0,0,.52,5.921c.646-.066,1.293-.145,1.935-.236a33.123,33.123,0,0,1-.5-5.685Z" transform="translate(7.674 65.738)" fill="#5e5353"/>
      <path id="Path_34" data-name="Path 34" d="M83.878,86.117H33.373q.6.989,1.216,1.953h49.29a.976.976,0,1,0,0-1.953Z" transform="translate(-19.103 62.717)" fill="#5e5353"/>
      <path id="Path_35" data-name="Path 35" d="M80.252,90.5a.98.98,0,0,0-.977-.979H35.642c.461.622.959,1.267,1.506,1.957H78.3v17.472a41.146,41.146,0,0,0,.495,6.114c.594.026,1.188.046,1.778.046l.195,0a39.034,39.034,0,0,1-.512-6.158Z" transform="translate(-16.865 66.074)" fill="#5e5353"/>
      <path id="Path_36" data-name="Path 36" d="M70.672,93.9a.976.976,0,0,0-.977-.975H38.5c.624.661,1.263,1.317,1.909,1.955H68.717v10.706a46.908,46.908,0,0,0,.324,5.278q1,.2,2.024.358a44.259,44.259,0,0,1-.393-5.635Z" transform="translate(-14.049 69.434)" fill="#5e5353"/>
      <path id="Path_37" data-name="Path 37" d="M60.274,97.308a.98.98,0,0,0-.979-.977H42.182c.82.652,1.678,1.3,2.6,1.955H58.317v3.945c0,1.021.07,2.05.137,3.047l.02.284c.659.238,1.319.461,1.972.667-.119-1.488-.173-2.771-.173-4Z" transform="translate(-10.414 72.792)" fill="#5e5353"/>
      <path id="Path_38" data-name="Path 38" d="M78.14,69.5a.982.982,0,0,0,.163,1.053,30.439,30.439,0,0,1,4.9,7.663.992.992,0,0,0,1.281.516A.98.98,0,0,0,85,77.448a31.873,31.873,0,0,0-3.46-5.975l-.433-.6h19.715c.113-.6.217-1.208.32-1.816l.024-.139H79.032A.976.976,0,0,0,78.14,69.5Z" transform="translate(24.97 45.758)" fill="#5e5353"/>
      <path id="Path_39" data-name="Path 39" d="M38.588,69.9a.978.978,0,0,0-.977-.977H27.141l0,.03c.109.644.22,1.289.342,1.925H37.611A.978.978,0,0,0,38.588,69.9Z" transform="translate(-25.25 45.758)" fill="#5e5353"/>
      <path id="Path_40" data-name="Path 40" d="M54.179,35.851a.977.977,0,1,0-1.955,0V86.144a16.332,16.332,0,0,1-13.46,16.1.982.982,0,0,0-.789,1.138,1,1,0,0,0,1.148.787A18.284,18.284,0,0,0,54.179,86.144Z" transform="translate(-14.577 12.173)" fill="#5e5353"/>
      <path id="Path_41" data-name="Path 41" d="M52.368,65.906a.978.978,0,0,0-1.845-.652,21.3,21.3,0,0,1-5.28,8.2.978.978,0,0,0,.677,1.682H65.7a.977.977,0,0,0,0-1.955H48.195l.481-.608A23.212,23.212,0,0,0,52.368,65.906Z" transform="translate(-7.691 41.496)" fill="#5e5353"/>
      <path id="Path_42" data-name="Path 42" d="M80.067,68.923H60.3a.977.977,0,0,0,0,1.955H80.067A15.8,15.8,0,0,1,95.85,86.659v31.224c.679-.685,1.333-1.375,1.955-2.054V86.659A17.758,17.758,0,0,0,80.067,68.923Z" transform="translate(6.499 45.758)" fill="#5e5353"/>
    </g>
    <g id="Group_4" data-name="Group 4" transform="translate(157.986 364.973)">
      <path id="Path_43" data-name="Path 43" d="M170.671,48.739V82.774a.976.976,0,1,0,1.953,0V48.739a.976.976,0,1,0-1.953,0Z" transform="translate(-109.745 21.298)" fill="#5e5353"/>
      <path id="Path_44" data-name="Path 44" d="M190.708,14.95A63.954,63.954,0,0,1,214.782,19.6l9.05,4.493a65.5,65.5,0,0,1,9.616,7.012,71.228,71.228,0,0,0-8.827-8.81l-9.038-4.479a66.092,66.092,0,0,0-24.875-4.825,66.872,66.872,0,0,0-31.156,7.89,69.207,69.207,0,0,0-8.2,7.536q.384-.295.767-.578A65.53,65.53,0,0,1,190.708,14.95Z" transform="translate(-128.804 -12.995)" fill="#5e5353"/>
      <path id="Path_45" data-name="Path 45" d="M190.046,107.211a65.277,65.277,0,0,1-27.259-5.975,63.082,63.082,0,0,1-10.81-6.412,67.355,67.355,0,0,0,8.643,7.487c.159.074.369.187.578.3.252.139.5.276.767.4a67.151,67.151,0,0,0,60.7-2.3,69.742,69.742,0,0,0,9.211-8.8,63.9,63.9,0,0,1-41.833,15.3Z" transform="translate(-128.184 64.846)" fill="#5e5353"/>
      <path id="Path_46" data-name="Path 46" d="M141.39,100.321l-.014-.373a.98.98,0,0,0,.948-1.009l-.04-1.275c-.753-23.584-1.6-50.317,14.743-68.806a.973.973,0,0,0-.085-1.379.98.98,0,0,0-1.379.083c-16.864,19.071-16,46.215-15.233,70.164l.04,1.275a.972.972,0,0,0,.977.944Z" transform="translate(-139.999 1.051)" fill="#5e5353"/>
      <path id="Path_47" data-name="Path 47" d="M201.4,125.416a60.216,60.216,0,0,0,38.873-14.206.978.978,0,0,0,.115-1.377,1,1,0,0,0-1.379-.115,58.242,58.242,0,0,1-57.569,10.208c-20.473-7.487-35.689-26.581-38.768-48.644-.091-.673-.177-1.345-.248-2.016a.982.982,0,0,0-.987-.874,1,1,0,0,0-.745.362.971.971,0,0,0-.213.715c.075.693.159,1.388.256,2.084,3.176,22.77,18.89,42.478,40.031,50.211A59.852,59.852,0,0,0,201.4,125.416Z" transform="translate(-139.528 41.646)" fill="#5e5353"/>
      <path id="Path_48" data-name="Path 48" d="M252.195,93.916l0-.165c-.1-3.347-.2-6.807-.226-10.192-.1-15.287-3.079-27.185-9.374-37.445-11.219-18.284-31.168-29.642-52.067-29.642a60.527,60.527,0,0,0-38.639,14.071.98.98,0,0,0-.125,1.379,1,1,0,0,0,1.377.125,58.581,58.581,0,0,1,37.387-13.62c20.221,0,39.533,11,50.4,28.711,6.1,9.944,8.986,21.52,9.084,36.434.024,3.522.135,7.177.234,10.4.3,9.886.608,20.1-1.063,29.9a62.452,62.452,0,0,1-13.6,29.527.967.967,0,0,0-.224.713.981.981,0,0,0,.348.661,1,1,0,0,0,1.377-.121,64.417,64.417,0,0,0,14.03-30.453C252.809,114.207,252.5,103.892,252.195,93.916Z" transform="translate(-128.621 -9.565)" fill="#5e5353"/>
      <path id="Path_49" data-name="Path 49" d="M191.686,20.076c-.783.073-1.482.159-2.179.258-20.032,2.842-37.4,17.24-44.244,36.676a.979.979,0,0,0,.6,1.247,1,1,0,0,0,1.247-.6c6.607-18.759,23.356-32.65,42.673-35.391.671-.1,1.343-.177,2.02-.244a.978.978,0,0,0-.115-1.951Z" transform="translate(-134.862 -6.011)" fill="#5e5353"/>
      <path id="Path_50" data-name="Path 50" d="M145.426,43.75a1.12,1.12,0,0,0-.131-.008.951.951,0,0,0-.93.9,275.363,275.363,0,0,0-.511,37.342l0,8.033c1.915,20.316,13.078,38.136,29.13,46.471a1,1,0,0,0,1.319-.419.967.967,0,0,0,.064-.743.978.978,0,0,0-.481-.574c-15.466-8.029-26.226-25.207-28.081-44.826V81.932a273.7,273.7,0,0,1,.5-37.121A.978.978,0,0,0,145.426,43.75Z" transform="translate(-136.582 17.333)" fill="#5e5353"/>
      <path id="Path_51" data-name="Path 51" d="M231.87,60c-6.3-21.713-25.338-37.757-47.361-39.924h0a1.013,1.013,0,0,0-1.067.88.977.977,0,0,0,.876,1.067c21.234,2.088,39.59,17.569,45.676,38.523,2.668,9.191,2.537,19.162,2.409,28.808l0,.117c-.04,3.1-.081,6.3-.026,9.4.195,10.937-.056,23.56-5.53,34.988-8.879,18.521-27.553,30.489-47.573,30.491-1.168,0-2.346-.044-3.508-.125a51.006,51.006,0,0,1-11.7-2.211,1,1,0,0,0-.3-.044.978.978,0,0,0-.29,1.911,53.033,53.033,0,0,0,12.149,2.294c1.228.085,2.451.129,3.637.129,20.775,0,40.146-12.407,49.347-31.6,5.659-11.811,5.921-24.708,5.723-35.87-.056-3.111-.014-6.321.026-9.427C234.486,79.588,234.619,69.468,231.87,60Z" transform="translate(-117.519 -6.014)" fill="#5e5353"/>
      <path id="Path_52" data-name="Path 52" d="M189.55,100.443a48.123,48.123,0,0,0,38.2-19.172.973.973,0,0,0-.191-1.367.994.994,0,0,0-1.369.193,46.163,46.163,0,0,1-36.636,18.392,43.992,43.992,0,0,1-16.348-3.129,46.658,46.658,0,0,1-19.15-14.222.978.978,0,0,0-.765-.369.983.983,0,0,0-.971.872.97.97,0,0,0,.209.717,48.594,48.594,0,0,0,19.955,14.82A45.92,45.92,0,0,0,189.55,100.443Z" transform="translate(-127.851 52.813)" fill="#5e5353"/>
      <path id="Path_53" data-name="Path 53" d="M196.193,119.218a.973.973,0,0,0,.5,1.287,1,1,0,0,0,1.291-.5c1.877-4.259,3.613-8.494,4.219-13.468a265.154,265.154,0,0,0-.59-48.628A41,41,0,0,0,189.692,31.5a.978.978,0,1,0-1.387,1.381,39.127,39.127,0,0,1,11.358,25.195,263.265,263.265,0,0,1,.592,48.273C199.687,111.014,198.011,115.1,196.193,119.218Z" transform="translate(-92.632 4.977)" fill="#5e5353"/>
      <path id="Path_54" data-name="Path 54" d="M151.762,51.591C146.4,63.064,146.7,75.721,147,87.961l.038,1.539c.056,2.39.06,4.8.062,7.135.022,10.643.044,21.626,4.972,31.919a1,1,0,0,0,1.3.461.977.977,0,0,0,.461-1.3c-4.738-9.9-4.757-20.181-4.777-31.069,0-2.227-.008-4.743-.066-7.189l-.036-1.537c-.288-12.019-.584-24.442,4.581-35.5,7.542-16.155,24.23-27.015,41.537-27.036v0h.066a45.5,45.5,0,0,1,25.69,8.073,1,1,0,0,0,1.361-.246.974.974,0,0,0-.246-1.359,47.455,47.455,0,0,0-26.8-8.42C177.054,23.426,159.628,34.744,151.762,51.591Z" transform="translate(-133.229 -2.706)" fill="#5e5353"/>
      <path id="Path_55" data-name="Path 55" d="M191.668,26.9c-22.77,0-41.294,19.027-41.294,42.415V103.35c0,23.387,18.525,42.413,41.294,42.413s41.292-19.025,41.292-42.413V69.316C232.961,45.928,214.436,26.9,191.668,26.9Zm39.338,76.449c0,22.309-17.647,40.458-39.338,40.458s-39.34-18.149-39.34-40.458V69.316c0-22.309,17.647-40.46,39.34-40.46s39.338,18.151,39.338,40.46Z" transform="translate(-129.765 0.721)" fill="#5e5353"/>
      <path id="Path_56" data-name="Path 56" d="M188.333,30.378c-19.065,0-34.577,15.929-34.577,35.508V99.92c0,19.58,15.512,35.508,34.577,35.508S222.905,119.5,222.905,99.92V65.886C222.905,46.307,207.4,30.378,188.333,30.378ZM220.949,99.92c0,18.5-14.632,33.556-32.616,33.556s-32.62-15.053-32.62-33.556V65.886c0-18.5,14.632-33.554,32.62-33.554s32.616,15.053,32.616,33.554Z" transform="translate(-126.429 4.151)" fill="#5e5353"/>
      <path id="Path_57" data-name="Path 57" d="M185.047,33.855c-.5,0-1,.012-1.5.042a28.005,28.005,0,0,0-22.972,14.9c-3.125,5.88-3.385,11.984-3.385,17.73v19.47c0,1.17-.024,2.352-.048,3.542l-.006.272a75.651,75.651,0,0,0,.242,10.033,28.139,28.139,0,0,0,16.628,22.65,27.724,27.724,0,0,0,11.406,2.477,26.513,26.513,0,0,0,15.351-4.877A.976.976,0,0,0,201,118.73a1.01,1.01,0,0,0-1.363-.234,24.586,24.586,0,0,1-14.228,4.515,25.732,25.732,0,0,1-10.6-2.3,26.2,26.2,0,0,1-15.486-21.087,73.782,73.782,0,0,1-.228-9.771l0-.161c.024-1.239.048-2.471.048-3.693V66.525c0-5.5.244-11.328,3.158-16.813a26.048,26.048,0,0,1,21.351-13.865c.463-.024.926-.038,1.39-.038A25.953,25.953,0,0,1,207.13,48.546c3.355,5.617,3.816,11.628,3.816,17.287,0,3.472.066,7.026.129,10.464.131,7.226.268,14.675-.181,21.914a27.138,27.138,0,0,1-4.185,12.872.982.982,0,0,0-.131.737.97.97,0,0,0,.429.612,1,1,0,0,0,1.349-.3,29.093,29.093,0,0,0,4.489-13.805c.455-7.314.316-14.8.185-22.045l-.006-.318c-.06-3.329-.123-6.77-.123-10.134,0-5.655-.487-12.25-4.092-18.288A27.917,27.917,0,0,0,185.047,33.855Z" transform="translate(-123.144 7.58)" fill="#5e5353"/>
      <path id="Path_58" data-name="Path 58" d="M181.727,37.331c-.4,0-.806.012-1.208.036a21.45,21.45,0,0,0-19.677,18.3,57.527,57.527,0,0,0-.322,10.069c.036,1.287.07,2.55.07,3.788a.977.977,0,1,0,1.955,0c0-1.255-.032-2.537-.066-3.826a55.658,55.658,0,0,1,.3-9.739c1.367-8.974,9.042-16.129,17.851-16.642.366-.02.731-.032,1.1-.032a19.417,19.417,0,0,1,18.753,15.595,45.837,45.837,0,0,1,.489,10.307c-.034,1.2-.064,2.394-.064,3.554V88.4c0,6.134-.25,11.2-3.413,15.887a19.122,19.122,0,0,1-15.835,8.5,18.429,18.429,0,0,1-7.441-1.561,20.18,20.18,0,0,1-11.672-18.5c-.02-2.886-.014-5.776-.006-8.663l.006-4.338a.977.977,0,0,0-1.955,0l-.008,4.6c-.006,2.8-.014,5.606.008,8.408a22.128,22.128,0,0,0,12.84,20.279,20.344,20.344,0,0,0,8.229,1.73,21.07,21.07,0,0,0,17.454-9.362c3.466-5.139,3.748-10.73,3.748-16.981V68.741c0-1.142.03-2.316.062-3.5a47.188,47.188,0,0,0-.528-10.76A21.38,21.38,0,0,0,181.727,37.331Z" transform="translate(-119.824 11.009)" fill="#5e5353"/>
      <path id="Path_59" data-name="Path 59" d="M191.092,85.95a.973.973,0,0,0,.685.3.986.986,0,0,0,1-.955c.2-9.68.2-19.957.193-29.025-.614-7.556-6.245-15.426-14.6-15.462a14.427,14.427,0,0,0-12.407,7.254c-2.247,3.879-2.147,8.369-2.05,12.711l0,.149c.016.787.032,1.567.032,2.332l-.014,21.731c-.052,4.761-.105,9.682,3.178,13.885a14.079,14.079,0,0,0,12.9,5.337,14.308,14.308,0,0,0,11.43-8.353.979.979,0,0,0-.487-1.293,1.012,1.012,0,0,0-1.291.487,12.378,12.378,0,0,1-9.884,7.216,12.557,12.557,0,0,1-1.52.091,12.118,12.118,0,0,1-9.608-4.688c-2.858-3.661-2.811-8.031-2.761-12.659l.012-21.755c0-.779-.016-1.571-.032-2.372l0-.151c-.089-4.076-.183-8.289,1.788-11.688a12.468,12.468,0,0,1,10.706-6.281c7.232.036,12.115,6.934,12.661,13.585,0,9.57,0,19.433-.2,28.9A.983.983,0,0,0,191.092,85.95Z" transform="translate(-116.456 14.439)" fill="#5e5353"/>
      <path id="Path_60" data-name="Path 60" d="M167.287,52.169V86.2a7.7,7.7,0,1,0,15.394,0V52.169a7.7,7.7,0,1,0-15.394,0Zm13.44,0V86.2a5.746,5.746,0,1,1-11.485,0V52.169a5.849,5.849,0,0,1,5.719-5.927h.06A5.852,5.852,0,0,1,180.727,52.169Z" transform="translate(-113.083 17.868)" fill="#5e5353"/>
    </g>
  </g>
</svg>
